<svg width="86" height="86" viewBox="0 0 86 86" fill="none" xmlns="http://www.w3.org/2000/svg">
<path d="M65.2118 0H19.9993C8.98303 0 0.0525818 8.93045 0.0525818 19.9467V65.1593C0.0525818 76.1755 8.98303 85.106 19.9993 85.106H65.2118C76.2281 85.106 85.1586 76.1755 85.1586 65.1593V19.9467C85.1586 8.93045 76.2281 0 65.2118 0Z" fill="#101010"/>
<path fill-rule="evenodd" clip-rule="evenodd" d="M34.15 15.5506C31.9504 15.549 29.8075 16.2513 28.0315 17.5557C26.2554 18.8601 24.9386 20.6989 24.2717 22.8059C23.6048 24.9129 23.6224 27.1786 24.322 29.2748C25.0215 31.3711 26.3668 33.189 28.1629 34.4654C26.8106 35.4269 25.7077 36.7008 24.9471 38.1799C24.1864 39.659 23.7902 41.3001 23.7917 42.9651C23.7917 46.4742 25.5194 49.5803 28.1679 51.4649C26.717 52.4973 25.5548 53.8878 24.7932 55.5024C24.0315 57.117 23.6961 58.9015 23.8191 60.6842C23.9421 62.4669 24.5195 64.1877 25.4956 65.6811C26.4718 67.1746 27.8138 68.3904 29.3927 69.2115C30.9715 70.0327 32.734 70.4315 34.5106 70.3698C36.2872 70.308 38.0181 69.7876 39.5367 68.8588C41.0554 67.9299 42.3107 66.6238 43.1818 65.0661C44.0529 63.5085 44.5106 61.7516 44.5108 59.9647V51.0288C45.5884 51.9064 46.8304 52.5576 48.163 52.9436C49.4957 53.3296 50.8919 53.4427 52.2689 53.2762C53.6458 53.1096 54.9755 52.6667 56.179 51.9739C57.3825 51.2811 58.4353 50.3523 59.275 49.2428C60.1148 48.1332 60.7243 46.8655 61.0674 45.5147C61.4106 44.1639 61.4804 42.7576 61.2727 41.3792C61.0651 40.0008 60.5841 38.6783 59.8585 37.4902C59.1328 36.3021 58.1772 35.2727 57.0483 34.4628C58.8444 33.1865 60.1896 31.3685 60.8892 29.2723C61.5888 27.176 61.6064 24.9103 60.9395 22.8034C60.2725 20.6964 58.9557 18.8575 57.1797 17.5531C55.4037 16.2487 53.2607 15.5465 51.0611 15.5481H34.1551L34.15 15.5506ZM40.7029 49.5523H34.15C33.2895 49.5523 32.4374 49.3819 31.6423 49.0509C30.8473 48.7198 30.1249 48.2346 29.5164 47.6229C28.9079 47.0113 28.4252 46.2851 28.0959 45.4859C27.7666 44.6867 27.5971 43.8302 27.5971 42.9651C27.5971 42.1001 27.7666 41.2435 28.0959 40.4444C28.4252 39.6452 28.9079 38.919 29.5164 38.3073C30.1249 37.6957 30.8473 37.2105 31.6423 36.8794C32.4374 36.5484 33.2895 36.378 34.15 36.378H40.7029V49.5523ZM34.15 32.5527H40.7029V19.3759H34.15C32.4117 19.3759 30.7447 20.0701 29.5155 21.3056C28.2864 22.5412 27.5959 24.217 27.5959 25.9643C27.5959 27.7117 28.2864 29.3875 29.5155 30.623C30.7447 31.8586 32.4117 32.5527 34.15 32.5527ZM57.6166 25.9631C57.6172 27.7092 56.9282 29.3841 55.7008 30.6198C54.4735 31.8555 52.8083 32.5507 51.0713 32.5527H44.5083V19.3759H51.0637C51.9242 19.3759 52.7763 19.5463 53.5714 19.8773C54.3664 20.2084 55.0888 20.6936 55.6973 21.3053C56.3058 21.9169 56.7884 22.6431 57.1177 23.4423C57.4471 24.2415 57.6166 25.098 57.6166 25.9631ZM44.5083 42.9575C44.5103 41.2131 45.2005 39.5408 46.4276 38.3073C47.6546 37.0739 49.3182 36.38 51.0535 36.378H51.0688C52.3641 36.3795 53.63 36.7669 54.7065 37.4913C55.7829 38.2157 56.6216 39.2446 57.1167 40.4479C57.6117 41.6512 57.7408 42.975 57.4877 44.2521C57.2346 45.5292 56.6107 46.7022 55.6947 47.6229C54.7787 48.5437 53.6118 49.1709 52.3414 49.4253C51.071 49.6797 49.754 49.5499 48.557 49.0523C47.3599 48.5547 46.3364 47.7116 45.6158 46.6295C44.8952 45.5474 44.5098 44.275 44.5083 42.9728V42.9575ZM34.15 53.3776C32.8541 53.3776 31.5872 53.7638 30.5097 54.4875C29.4321 55.2112 28.5922 56.2398 28.0962 57.4433C27.6001 58.6468 27.4702 59.9711 27.7228 61.2488C27.9755 62.5265 28.5993 63.7003 29.5155 64.6216C30.4317 65.5429 31.5991 66.1705 32.87 66.4249C34.141 66.6794 35.4585 66.5493 36.6559 66.0511C37.8533 65.553 38.8769 64.7091 39.5973 63.6261C40.3176 62.5432 40.7024 61.2699 40.7029 59.9672V53.3776H34.15Z" fill="#F33C94"/>
</svg>
