<svg width="75" height="85" viewBox="0 0 75 85" fill="none" xmlns="http://www.w3.org/2000/svg">
<path d="M0.477295 0L7.25429 75.8589L37.6663 84.2877L68.1575 75.8484L74.945 0H0.482573H0.477295ZM62.3464 71.0229L37.8352 77.8028V77.8396L37.7719 77.8186L37.7085 77.8396V77.8028L13.1973 71.0229L7.40207 6.20568H68.1416L62.3464 71.0229ZM49.1513 43.6399L48.0746 55.7036L37.6663 58.5062L27.2844 55.7141L26.6194 48.2863H17.2614L18.5651 62.8997L37.7032 68.1834L56.7833 62.8997L59.3432 34.3367H25.3685L24.5187 24.8069H60.1876L61.0216 15.5037H14.3268L16.8445 43.6399H49.1513Z" fill="#F33C94"/>
</svg>
