<svg width="86" height="86" viewBox="0 0 86 86" fill="none" xmlns="http://www.w3.org/2000/svg">
<path d="M65.819 0H20.6065C9.59021 0 0.65976 8.93045 0.65976 19.9467V65.1593C0.65976 76.1755 9.59021 85.106 20.6065 85.106H65.819C76.8353 85.106 85.7657 76.1755 85.7657 65.1593V19.9467C85.7657 8.93045 76.8353 0 65.819 0Z" fill="#101010"/>
<path d="M19.8086 59.1886V22.6994C19.8086 22.4511 19.915 22.3094 20.1633 22.3094C20.766 22.3094 21.3335 22.3094 22.149 22.2739C23.0001 22.2383 23.8867 22.2383 24.8441 22.2031C25.8016 22.1675 26.8298 22.1675 27.9292 22.1319C29.0283 22.0967 30.0921 22.0967 31.1559 22.0967C34.0638 22.0967 36.4751 22.4511 38.4611 23.1957C40.2412 23.8003 41.8644 24.7936 43.2127 26.1036C44.3554 27.2501 45.2382 28.6287 45.8015 30.1462C46.3334 31.6355 46.617 33.1605 46.617 34.7562C46.617 37.8057 45.9079 40.3233 44.4893 42.3093C43.0708 44.295 41.0851 45.7844 38.7802 46.6355C36.3687 47.5221 33.7091 47.8412 30.8016 47.8412C29.9505 47.8412 29.383 47.8412 29.0283 47.8057C28.6739 47.7701 28.1772 47.7701 27.5037 47.7701V59.153C27.5389 59.4014 27.3617 59.6141 27.1134 59.6497H20.2341C19.9505 59.6497 19.8086 59.5077 19.8086 59.1886ZM27.5389 29.1532V41.068C28.0356 41.1036 28.4964 41.1391 28.9219 41.1391H30.8016C32.1845 41.1391 33.5675 40.9264 34.8793 40.5008C36.0143 40.1817 37.007 39.5078 37.7872 38.6212C38.5319 37.7349 38.8866 36.5291 38.8866 34.969C38.9199 33.8608 38.6369 32.766 38.0708 31.8127C37.4681 30.8909 36.617 30.1817 35.5888 29.7915C34.2766 29.2595 32.8581 29.0468 31.4043 29.0824C30.4824 29.0824 29.6666 29.0823 28.9931 29.1179C28.2836 29.0823 27.7873 29.1179 27.5389 29.1532ZM68.7445 38.9051C67.6807 38.3376 66.5461 37.9477 65.3403 37.6993C64.0281 37.4158 62.7163 37.2382 61.3686 37.2382C60.6595 37.203 59.9148 37.3094 59.2409 37.4866C58.7801 37.5929 58.3899 37.8413 58.1419 38.1957C57.9643 38.4796 57.8579 38.834 57.8579 39.1531C57.8579 39.4723 57.9999 39.7914 58.2127 40.0753C58.5318 40.4653 58.9573 40.7844 59.4184 41.0328C60.2406 41.4586 61.0805 41.849 61.9361 42.203C63.8509 42.8413 65.695 43.7276 67.3971 44.7914C68.5673 45.5361 69.5248 46.5291 70.1983 47.7349C70.7658 48.8695 71.0494 50.1105 71.0141 51.3871C71.0494 53.054 70.553 54.7205 69.6312 56.1035C68.642 57.519 67.2619 58.6157 65.6594 59.2594C63.9217 60.0041 61.7941 60.3944 59.2409 60.3944C57.6099 60.3944 56.0142 60.2524 54.4185 59.9333C53.1678 59.7172 51.9514 59.3357 50.8015 58.7986C50.5531 58.6567 50.3759 58.4083 50.4112 58.1248V51.9546C50.4112 51.8482 50.4467 51.7062 50.5531 51.6354C50.6595 51.5646 50.7659 51.5999 50.8723 51.671C52.2552 52.4865 53.709 53.054 55.2695 53.4084C56.6169 53.7631 58.0355 53.9403 59.4537 53.9403C60.8014 53.9403 61.7589 53.7631 62.3971 53.4439C62.9643 53.1956 63.3546 52.5929 63.3546 51.9546C63.3546 51.4582 63.0707 50.9971 62.5035 50.536C61.9361 50.0753 60.7658 49.5434 59.0282 48.8695C57.2457 48.2414 55.553 47.3831 53.9929 46.3163C52.8818 45.5243 51.9611 44.4946 51.2978 43.302C50.7303 42.1674 50.4467 40.9264 50.4823 39.685C50.4823 38.1604 50.9078 36.7063 51.6878 35.3945C52.5744 33.9759 53.8866 32.8413 55.4111 32.1319C57.078 31.2808 59.1701 30.8909 61.6877 30.8909C63.1418 30.8909 64.6312 30.9972 66.085 31.21C67.1488 31.352 68.177 31.6355 69.1345 32.0255C69.2764 32.0611 69.4184 32.203 69.4892 32.3446C69.5248 32.4866 69.56 32.6285 69.56 32.7702V38.5504C69.56 38.6923 69.4892 38.834 69.3828 38.9051C69.0637 38.9759 68.8865 38.9759 68.7445 38.9051Z" fill="#F33C94"/>
</svg>
