<svg width="56" height="57" viewBox="0 0 56 57" fill="none" xmlns="http://www.w3.org/2000/svg">
<path d="M47.6342 8.99449C45.0809 6.41539 42.0397 4.37049 38.6878 2.97906C35.336 1.58764 31.7406 0.877538 28.1115 0.890181C12.9054 0.890181 0.512228 13.2834 0.512228 28.4894C0.512228 33.3631 1.79332 38.0976 4.18841 42.2751L0.289429 56.5899L14.9106 52.7467C18.9488 54.9468 23.4884 56.1165 28.1115 56.1165C43.3175 56.1165 55.7107 43.7233 55.7107 28.5173C55.7107 21.137 52.8421 14.2024 47.6342 8.99449ZM28.1115 51.4377C23.9897 51.4377 19.9514 50.3237 16.4145 48.235L15.579 47.7337L6.88985 50.0174L9.20139 41.551L8.64439 40.6877C6.35442 37.0309 5.13848 32.804 5.13531 28.4894C5.13531 15.8456 15.4398 5.54111 28.0836 5.54111C34.2106 5.54111 39.9755 7.9362 44.2922 12.2808C46.4297 14.4084 48.1235 16.9391 49.2757 19.7262C50.4278 22.5133 51.0153 25.5014 51.0041 28.5173C51.0598 41.1611 40.7553 51.4377 28.1115 51.4377ZM40.6996 34.2822C40.0033 33.948 36.6057 32.277 35.993 32.0263C35.3524 31.8035 34.9068 31.6921 34.4334 32.3605C33.9599 33.0568 32.651 34.6164 32.2611 35.062C31.8712 35.5354 31.4534 35.5911 30.7572 35.2291C30.0609 34.8949 27.833 34.1429 25.2151 31.8035C23.1542 29.9655 21.7895 27.7096 21.3718 27.0134C20.9819 26.3171 21.3161 25.9551 21.6781 25.593C21.9845 25.2867 22.3744 24.7854 22.7086 24.3955C23.0428 24.0056 23.182 23.6992 23.4048 23.2536C23.6276 22.7802 23.5162 22.3903 23.3491 22.0561C23.182 21.7219 21.7895 18.3242 21.2325 16.9317C20.6755 15.5949 20.0907 15.762 19.6729 15.7342H18.3361C17.8627 15.7342 17.1386 15.9013 16.4981 16.5975C15.8854 17.2938 14.103 18.9648 14.103 22.3624C14.103 25.7601 16.5816 29.0464 16.9158 29.492C17.25 29.9655 21.7895 36.9279 28.6963 39.9079C30.3394 40.632 31.6205 41.0497 32.6231 41.3561C34.2663 41.8852 35.7702 41.8016 36.9677 41.6345C38.3045 41.4396 41.0616 39.9636 41.6186 38.3483C42.2035 36.733 42.2035 35.3683 42.0085 35.062C41.8136 34.7556 41.3958 34.6164 40.6996 34.2822Z" fill="white"/>
</svg>
