<svg width="41" height="41" viewBox="0 0 41 41" fill="none" xmlns="http://www.w3.org/2000/svg">
<path d="M25.4988 1.99652L25.4988 6.49689L25.4988 1.99652ZM35.0452 5.95121L31.8631 9.13335L35.0452 5.95121ZM38.9999 15.4976L34.4996 15.4976L38.9999 15.4976Z" fill="#7873FA"/>
<path d="M25.4988 1.99652L25.4988 6.49689M35.0452 5.95121L31.8631 9.13335M38.9999 15.4976L34.4996 15.4976" stroke="#7873FA" stroke-width="3.00025" stroke-miterlimit="10" stroke-linecap="square"/>
<path d="M3.91397 37.0394C5.16734 38.2944 6.65573 39.2902 8.29407 39.9698C9.93241 40.6494 11.6886 40.9995 13.4623 41.0001C15.236 41.0007 16.9924 40.6518 18.6312 39.9733C20.27 39.2949 21.7591 38.3001 23.0133 37.046L29.3776 30.6817L23.0133 24.3165L16.6491 30.6817C16.2266 31.1042 15.7242 31.4383 15.1712 31.6646C14.6182 31.8909 14.0256 32.0047 13.4282 31.9996C12.8307 31.9944 12.2402 31.8704 11.6912 31.6346C11.1422 31.3988 10.6456 31.0561 10.2304 30.6264C8.51466 28.8525 8.59154 26.0098 10.3373 24.264L16.6491 17.9522L10.2848 11.588L4.01148 17.8613C-1.27364 23.1464 -1.36739 31.7515 3.91397 37.0394ZM35.7429 24.3168L31.5 28.5597L25.1355 22.1952L29.3786 17.9522L35.7429 24.3168ZM23.0133 11.5889L18.7704 15.8318L12.406 9.46736L16.649 5.22436L23.0133 11.5889Z" fill="#7873FA"/>
</svg>
