<svg width="247" height="241" viewBox="0 0 247 241" fill="none" xmlns="http://www.w3.org/2000/svg">
<g filter="url(#filter0_d_347_6)">
<path d="M123.5 79.3182C134.856 79.3182 145.747 83.657 153.777 91.3801C161.807 99.1031 166.318 109.578 166.318 120.5C166.318 135.737 157.683 149.053 144.909 156.191V168.545C144.909 170.366 144.157 172.112 142.819 173.399C141.481 174.686 139.665 175.409 137.773 175.409H109.227C107.335 175.409 105.519 174.686 104.181 173.399C102.843 172.112 102.091 170.366 102.091 168.545V156.191C89.3168 149.053 80.6818 135.737 80.6818 120.5C80.6818 109.578 85.193 99.1031 93.223 91.3801C101.253 83.657 112.144 79.3182 123.5 79.3182ZM137.773 182.273V189.136C137.773 190.957 137.021 192.703 135.683 193.99C134.344 195.277 132.529 196 130.636 196H116.364C114.471 196 112.656 195.277 111.317 193.99C109.979 192.703 109.227 190.957 109.227 189.136V182.273H137.773ZM180.591 113.636H202V127.364H180.591V113.636ZM45 113.636H66.4091V127.364H45V113.636ZM130.636 45V65.5909H116.364V45H130.636ZM72.9745 62.1591L88.175 76.8473L78.0414 86.525L62.8409 71.9741L72.9745 62.1591ZM158.825 76.7786L173.954 62.1591L184.159 71.9741L168.959 86.525L158.825 76.7786Z" fill="#7873FA"/>
</g>
<defs>
<filter id="filter0_d_347_6" x="0" y="0" width="247" height="241" filterUnits="userSpaceOnUse" color-interpolation-filters="sRGB">
<feFlood flood-opacity="0" result="BackgroundImageFix"/>
<feColorMatrix in="SourceAlpha" type="matrix" values="0 0 0 0 0 0 0 0 0 0 0 0 0 0 0 0 0 0 127 0" result="hardAlpha"/>
<feOffset/>
<feGaussianBlur stdDeviation="22.5"/>
<feComposite in2="hardAlpha" operator="out"/>
<feColorMatrix type="matrix" values="0 0 0 0 0.470588 0 0 0 0 0.45098 0 0 0 0 0.980392 0 0 0 1 0"/>
<feBlend mode="normal" in2="BackgroundImageFix" result="effect1_dropShadow_347_6"/>
<feBlend mode="normal" in="SourceGraphic" in2="effect1_dropShadow_347_6" result="shape"/>
</filter>
</defs>
</svg>
