<svg width="41" height="41" viewBox="0 0 41 41" fill="none" xmlns="http://www.w3.org/2000/svg">
<path d="M20.4558 9.18173C23.3491 9.18173 26.1239 10.3311 28.1697 12.3769C30.2156 14.4228 31.3649 17.1975 31.3649 20.0908C31.3649 24.1272 29.1649 27.6545 25.9104 29.5454V32.8181C25.9104 33.3003 25.7188 33.7628 25.3778 34.1037C25.0368 34.4447 24.5744 34.6363 24.0922 34.6363H16.8194C16.3372 34.6363 15.8748 34.4447 15.5338 34.1037C15.1928 33.7628 15.0013 33.3003 15.0013 32.8181V29.5454C11.7467 27.6545 9.54672 24.1272 9.54672 20.0908C9.54672 17.1975 10.6961 14.4228 12.7419 12.3769C14.7878 10.3311 17.5625 9.18173 20.4558 9.18173ZM24.0922 36.4545V38.2726C24.0922 38.7549 23.9006 39.2173 23.5596 39.5583C23.2187 39.8993 22.7562 40.0908 22.274 40.0908H18.6376C18.1554 40.0908 17.693 39.8993 17.352 39.5583C17.011 39.2173 16.8194 38.7549 16.8194 38.2726V36.4545H24.0922ZM35.0013 18.2726H40.4558V21.909H35.0013V18.2726ZM0.455811 18.2726H5.91036V21.909H0.455811V18.2726ZM22.274 0.0908203V5.54537H18.6376V0.0908203H22.274ZM7.58308 4.63627L11.4558 8.52718L8.87399 11.0908L5.00127 7.23627L7.58308 4.63627ZM29.4558 8.509L33.3104 4.63627L35.9104 7.23627L32.0376 11.0908L29.4558 8.509Z" fill="#7873FA"/>
</svg>
