<svg width="35" height="35" viewBox="0 0 35 35" fill="none" xmlns="http://www.w3.org/2000/svg">
<path d="M28.4389 14.2167C28.4389 17.3539 27.4203 20.2519 25.7044 22.6031L34.3591 31.263C35.2136 32.1174 35.2136 33.5049 34.3591 34.3592C33.5046 35.2136 32.1168 35.2136 31.2623 34.3592L22.6075 25.6994C20.2559 27.4218 17.3573 28.4333 14.2194 28.4333C6.36457 28.4333 0 22.07 0 14.2167C0 6.36333 6.36457 0 14.2194 0C22.0743 0 28.4389 6.36333 28.4389 14.2167ZM14.2194 24.059C15.5122 24.059 16.7923 23.8044 17.9867 23.3098C19.181 22.8152 20.2662 22.0902 21.1804 21.1762C22.0945 20.2623 22.8196 19.1773 23.3143 17.9832C23.809 16.789 24.0637 15.5092 24.0637 14.2167C24.0637 12.9242 23.809 11.6443 23.3143 10.4502C22.8196 9.25605 22.0945 8.17105 21.1804 7.2571C20.2662 6.34316 19.181 5.61818 17.9867 5.12356C16.7923 4.62894 15.5122 4.37436 14.2194 4.37436C12.9267 4.37436 11.6466 4.62894 10.4522 5.12356C9.25786 5.61818 8.17264 6.34316 7.25852 7.2571C6.3444 8.17105 5.61928 9.25605 5.12456 10.4502C4.62984 11.6443 4.37521 12.9242 4.37521 14.2167C4.37521 15.5092 4.62984 16.789 5.12456 17.9832C5.61928 19.1773 6.3444 20.2623 7.25852 21.1762C8.17264 22.0902 9.25786 22.8152 10.4522 23.3098C11.6466 23.8044 12.9267 24.059 14.2194 24.059Z" fill="#7873FA"/>
</svg>
