<svg width="42" height="25" viewBox="0 0 42 25" fill="none" xmlns="http://www.w3.org/2000/svg">
<path d="M4.07098 15.2458C3.88302 15.755 3.50237 16.1714 3.00991 16.4066C2.51746 16.6417 1.95201 16.6771 1.43372 16.5051C0.915422 16.3331 0.485131 15.9674 0.234268 15.4856C-0.0165936 15.0038 -0.0682539 14.444 0.090264 13.925C0.164932 13.6956 0.251836 13.4661 0.350607 13.2458C0.518569 12.85 0.766314 12.3042 1.10644 11.6583C1.79929 10.3667 2.87845 8.64583 4.46989 6.925C7.68218 3.44583 12.9436 0 20.9764 0C29.0093 0 34.2707 3.44583 37.483 6.925C39.1976 8.79157 40.5882 10.9275 41.5981 13.2458L41.7912 13.7167C41.8038 13.75 41.8458 13.9667 41.8878 14.175L41.9718 14.5833C41.9718 14.5833 42.3245 15.9708 40.5357 16.5583C40.0089 16.7329 39.4339 16.6932 38.9365 16.448C38.4391 16.2028 38.0599 15.772 37.8819 15.25V15.2375L37.8567 15.1708C37.6457 14.6356 37.4046 14.1125 37.1345 13.6042C36.3878 12.2063 35.465 10.9084 34.3883 9.74167C31.8268 6.97083 27.6404 4.16667 20.9764 4.16667C14.3125 4.16667 10.126 6.97083 7.56461 9.74167C6.17782 11.2503 5.05007 12.9746 4.22635 14.8458C4.1823 14.9534 4.1403 15.0617 4.10038 15.1708L4.07098 15.2458ZM12.5783 16.6667C12.5783 14.4565 13.4631 12.3369 15.0381 10.7741C16.613 9.21131 18.7491 8.33333 20.9764 8.33333C23.2038 8.33333 25.3399 9.21131 26.9148 10.7741C28.4898 12.3369 29.3746 14.4565 29.3746 16.6667C29.3746 18.8768 28.4898 20.9964 26.9148 22.5592C25.3399 24.122 23.2038 25 20.9764 25C18.7491 25 16.613 24.122 15.0381 22.5592C13.4631 20.9964 12.5783 18.8768 12.5783 16.6667Z" fill="#7873FA"/>
</svg>
