<svg width="361" height="241" viewBox="0 0 361 241" fill="none" xmlns="http://www.w3.org/2000/svg">
<g filter="url(#filter0_d_347_5)">
<path d="M71.2675 137.085C70.0547 140.16 67.5986 142.676 64.4211 144.096C61.2436 145.516 57.5951 145.729 54.2509 144.691C50.9067 143.652 48.1302 141.443 46.5116 138.533C44.8929 135.623 44.5596 132.242 45.5824 129.107C46.0642 127.721 46.6249 126.335 47.2622 125.005C48.346 122.614 49.9446 119.317 52.1392 115.416C56.6097 107.615 63.5728 97.2208 73.8415 86.827C94.5684 65.8128 128.517 45 180.348 45C232.179 45 266.128 65.8128 286.854 86.827C297.918 98.1011 306.89 111.002 313.407 125.005L314.653 127.849C314.734 128.05 315.005 129.359 315.276 130.617L315.818 133.083C315.818 133.083 318.094 141.464 306.552 145.012C303.153 146.067 299.442 145.827 296.233 144.346C293.024 142.865 290.577 140.263 289.428 137.11V137.035L289.266 136.632C287.905 133.399 286.349 130.24 284.606 127.169C279.788 118.726 273.834 110.887 266.886 103.84C250.359 87.1038 223.346 70.1667 180.348 70.1667C137.35 70.1667 110.337 87.1038 93.8097 103.84C84.8617 112.952 77.585 123.367 72.27 134.669C71.9858 135.318 71.7148 135.973 71.4572 136.632L71.2675 137.085ZM126.16 145.667C126.16 132.317 131.869 119.515 142.031 110.076C152.193 100.636 165.976 95.3333 180.348 95.3333C194.72 95.3333 208.502 100.636 218.665 110.076C228.827 119.515 234.536 132.317 234.536 145.667C234.536 159.016 228.827 171.818 218.665 181.258C208.502 190.697 194.72 196 180.348 196C165.976 196 152.193 190.697 142.031 181.258C131.869 171.818 126.16 159.016 126.16 145.667Z" fill="#7873FA"/>
</g>
<defs>
<filter id="filter0_d_347_5" x="0" y="0" width="361" height="241" filterUnits="userSpaceOnUse" color-interpolation-filters="sRGB">
<feFlood flood-opacity="0" result="BackgroundImageFix"/>
<feColorMatrix in="SourceAlpha" type="matrix" values="0 0 0 0 0 0 0 0 0 0 0 0 0 0 0 0 0 0 127 0" result="hardAlpha"/>
<feOffset/>
<feGaussianBlur stdDeviation="22.5"/>
<feComposite in2="hardAlpha" operator="out"/>
<feColorMatrix type="matrix" values="0 0 0 0 0.470588 0 0 0 0 0.45098 0 0 0 0 0.980392 0 0 0 1 0"/>
<feBlend mode="normal" in2="BackgroundImageFix" result="effect1_dropShadow_347_5"/>
<feBlend mode="normal" in="SourceGraphic" in2="effect1_dropShadow_347_5" result="shape"/>
</filter>
</defs>
</svg>
