<svg width="762" height="762" viewBox="0 0 762 762" fill="none" xmlns="http://www.w3.org/2000/svg">
<path d="M622.121 519.814C585.18 583.797 524.336 630.484 452.973 649.606C381.609 668.728 305.573 658.717 241.591 621.777C177.608 584.837 130.921 523.992 111.799 452.629C92.6771 381.266 102.687 305.229 139.628 241.247L183.683 266.682C153.488 318.98 145.306 381.132 160.936 439.463C176.566 497.794 214.727 547.527 267.026 577.722C319.324 607.916 381.475 616.099 439.807 600.469C498.138 584.839 547.871 546.677 578.066 494.379L622.121 519.814Z" fill="url(#paint0_linear_269_4)"/>
<path d="M139.628 241.246C176.568 177.264 237.413 130.576 308.776 111.455C380.139 92.333 456.175 102.343 520.158 139.284C584.14 176.224 630.828 237.068 649.95 308.432C669.071 379.795 659.061 455.831 622.121 519.814L578.066 494.379C608.26 442.08 616.443 379.929 600.813 321.598C585.183 263.266 547.021 213.533 494.723 183.339C442.424 153.144 380.273 144.962 321.942 160.592C263.611 176.222 213.877 214.383 183.683 266.682L139.628 241.246Z" fill="#A2A2A2"/>
<path d="M539.47 472.097C515.185 514.159 475.186 544.851 428.272 557.422C381.357 569.992 331.371 563.412 289.309 539.127C247.247 514.842 216.554 474.843 203.984 427.929C191.413 381.015 197.994 331.028 222.278 288.966L251.24 305.687C231.39 340.068 226.011 380.926 236.286 419.274C246.561 457.621 271.649 490.315 306.03 510.165C340.411 530.015 381.269 535.394 419.616 525.119C457.963 514.844 490.658 489.756 510.508 455.375L539.47 472.097Z" fill="#A2A2A2"/>
<path d="M222.278 288.966C246.563 246.904 286.562 216.211 333.476 203.641C380.39 191.07 430.377 197.651 472.439 221.936C514.501 246.22 545.194 286.219 557.764 333.133C570.335 380.048 563.754 430.034 539.469 472.096L510.508 455.375C530.358 420.994 535.737 380.136 525.462 341.789C515.187 303.442 490.099 270.747 455.718 250.897C421.337 231.047 380.479 225.668 342.132 235.943C303.785 246.219 271.09 271.306 251.24 305.687L222.278 288.966Z" fill="url(#paint1_linear_269_4)"/>
<defs>
<linearGradient id="paint0_linear_269_4" x1="414.271" y1="361.643" x2="241.591" y2="621.777" gradientUnits="userSpaceOnUse">
<stop stop-color="#F33C94"/>
<stop offset="1" stop-color="#7873FA"/>
</linearGradient>
<linearGradient id="paint1_linear_269_4" x1="361.298" y1="333.076" x2="472.439" y2="221.936" gradientUnits="userSpaceOnUse">
<stop stop-color="#7873FA"/>
<stop offset="1" stop-color="#F33C94"/>
</linearGradient>
</defs>
</svg>
